<svg xmlns="http://www.w3.org/2000/svg" viewBox="-50 -50 200 200">
  <path d="M0 50.21C0 76.987 20.833 98.744 47.5 100H50c27.5 0 50-22.176 50-49.79C100 22.593 77.5 0 50 0S0 22.594 0 50.21Zm68.75-23.013c0 10.46-8.333 18.828-18.75 18.828-15 0-27.083 12.134-27.083 27.197 0 3.766.833 7.113 2.083 10.46C6.667 69.874 2.917 43.515 16.667 25.105 24.583 14.645 37.083 8.368 50 8.368c10.417 0 18.75 8.369 18.75 18.829Z"/>
  <circle cx="50" cy="25" r="8" fill="#000"/>
  <circle cx="50" cy="72" r="16" fill="#fff"/>
  <!-- <circle cx="50" cy="50" r="50" stroke-width="17" stroke="#fff" fill="transparent"/> -->
</svg>